<?xml version="1.0" standalone="no"?>
<!DOCTYPE svg PUBLIC "-//W3C//DTD SVG 20010904//EN"
 "http://www.w3.org/TR/2001/REC-SVG-20010904/DTD/svg10.dtd">
<svg version="1.0" xmlns="http://www.w3.org/2000/svg"
 width="265.000000pt" height="263.000000pt" viewBox="0 0 265.000000 263.000000"
 preserveAspectRatio="xMidYMid meet">
<metadata>
Created by potrace 1.16, written by Peter Selinger 2001-2019
</metadata>
<g transform="translate(0.000000,263.000000) scale(0.100000,-0.100000)"
fill="#000000" stroke="none">
<path d="M733 1388 l-579 -1003 584 -3 c321 -1 843 -1 1161 0 l577 3 -576 997
c-316 548 -578 1000 -581 1003 -4 3 -267 -446 -586 -997z m1048 -82 c244 -423
446 -773 447 -778 2 -4 -409 -8 -913 -8 -504 0 -915 4 -913 8 6 15 891 1547
901 1560 8 11 12 11 22 0 7 -7 212 -359 456 -782z"/>
</g>
</svg>
